<?xml version="1.0" encoding="iso-8859-1"?>
<!-- Generator: Adobe Illustrator 19.0.0, SVG Export Plug-In . SVG Version: 6.00 Build 0)  -->
<svg version="1.1" id="Layer_1" xmlns="http://www.w3.org/2000/svg" xmlns:xlink="http://www.w3.org/1999/xlink" x="0px" y="0px"
	 viewBox="0 0 442.714 442.714" style="enable-background:new 0 0 442.714 442.714;" xml:space="preserve">
<g>
	<g>
		<g>
			<g id="XMLID_27_">
				<g>
					<path style="fill:#1EA6C6;" d="M306.21,276.876v25h-5.83v110.9c-17.31,4.21-35.4,6.45-54.01,6.45
						c-58.79,0-112.38-22.3-152.75-58.91v-0.13c0-60.89,35.63-113.45,87.17-137.98c19.37,19.32,42.05,29.73,65.58,29.73
						c23.54,0,46.21-10.41,65.59-29.73c4.28,2.04,8.46,4.27,12.51,6.69C313.11,241.676,306.21,258.486,306.21,276.876z"/>
					<path style="fill:#FCD09F;" d="M246.375,29.891c46.66,0,84.49,37.82,84.49,84.48c0,46.67-37.83,110.49-84.49,110.49
						s-84.49-63.82-84.49-110.49C161.885,67.711,199.715,29.891,246.375,29.891z"/>
				</g>
			</g>
		</g>
		<g>
			<g id="XMLID_22_">
				<g>
					<path style="fill:#EF806F;" d="M175.17,195.158c2.59,3.69,5.27,7.15,8.04,10.4l-8.43,4.01c-28.06,13.35-51.8,34.24-68.67,60.41
						c-13.72,21.29-22.32,45.29-25.31,70.31c-30.49-8.31-58.05-23.72-80.8-44.35v-0.11c0-53.06,31.05-98.86,75.96-120.24
						c16.88,16.84,36.64,25.91,57.14,25.91c13.43,0,26.55-3.89,38.74-11.31C172.91,191.868,174.03,193.528,175.17,195.158z"/>
					<path style="fill:#EFC59C;" d="M147.89,114.368c0,17.54,4.56,36.84,12.68,54.98c-8.49,5.38-17.76,8.55-27.47,8.55
						c-40.66,0-73.62-55.61-73.62-96.28c0-40.66,32.96-73.61,73.62-73.61c22.55,0,42.74,10.14,56.24,26.11
						C164.27,51.998,147.89,81.308,147.89,114.368z"/>
				</g>
			</g>
		</g>
	</g>
	<g>
		<path style="fill:#B3B3B3;" d="M436.882,315.877h-15v-39c0-11.575-4.507-22.457-12.69-30.64
			c-8.183-8.187-19.065-12.695-30.645-12.695c-23.895,0-43.335,19.44-43.335,43.335v39h-15v-39
			c0-32.166,26.169-58.335,58.335-58.335c15.588,0,30.238,6.069,41.253,17.09c11.015,11.015,17.082,25.663,17.082,41.245V315.877z"
			/>
		<rect x="314.379" y="315.877" style="fill:#EF806F;" width="128.335" height="118.829"/>
	</g>
</g>
<g>
</g>
<g>
</g>
<g>
</g>
<g>
</g>
<g>
</g>
<g>
</g>
<g>
</g>
<g>
</g>
<g>
</g>
<g>
</g>
<g>
</g>
<g>
</g>
<g>
</g>
<g>
</g>
<g>
</g>
</svg>
